<mxfile host="Electron" agent="Mozilla/5.0 (Windows NT 10.0; Win64; x64) AppleWebKit/537.36 (KHTML, like Gecko) draw.io/26.0.16 Chrome/132.0.6834.196 Electron/34.2.0 Safari/537.36" version="26.0.16">
  <diagram id="C5RBs43oDa-KdzZeNtuy" name="Page-1">
    <mxGraphModel dx="2257" dy="690" grid="1" gridSize="10" guides="1" tooltips="1" connect="1" arrows="1" fold="1" page="1" pageScale="1" pageWidth="827" pageHeight="1169" math="0" shadow="0">
      <root>
        <mxCell id="WIyWlLk6GJQsqaUBKTNV-0" />
        <mxCell id="WIyWlLk6GJQsqaUBKTNV-1" parent="WIyWlLk6GJQsqaUBKTNV-0" />
        <mxCell id="Dooa5Wcz_G5T01U4nuBo-0" value="&lt;b&gt;&lt;font style=&quot;font-size: 22px;&quot;&gt;类&lt;/font&gt;&lt;/b&gt;" style="text;html=1;align=center;verticalAlign=middle;resizable=0;points=[];autosize=1;strokeColor=none;fillColor=none;" parent="WIyWlLk6GJQsqaUBKTNV-1" vertex="1">
          <mxGeometry x="-464" y="63" width="50" height="40" as="geometry" />
        </mxCell>
        <mxCell id="Dooa5Wcz_G5T01U4nuBo-1" value="RuleLuckAwardLogicTreeNode" style="swimlane;fontStyle=1;align=center;verticalAlign=top;childLayout=stackLayout;horizontal=1;startSize=26;horizontalStack=0;resizeParent=1;resizeParentMax=0;resizeLast=0;collapsible=1;marginBottom=0;whiteSpace=wrap;html=1;" parent="WIyWlLk6GJQsqaUBKTNV-1" vertex="1">
          <mxGeometry x="-620" y="150" width="250" height="130" as="geometry" />
        </mxCell>
        <mxCell id="Dooa5Wcz_G5T01U4nuBo-4" value="+ logic (String userId, Long strategyId, Integer awardId, String ruleValue :&amp;nbsp;&lt;div&gt;&lt;span style=&quot;white-space: pre;&quot;&gt;&#x9;&lt;/span&gt;添加了String ruleValue传入参数&lt;/div&gt;&lt;div&gt;&lt;span style=&quot;white-space: pre;&quot;&gt;&#x9;&lt;/span&gt;通过ruleValue获取到幸运奖的奖品Id, 以及awardRuleValue(可能没有)&lt;br&gt;&lt;/div&gt;&lt;div&gt;&lt;span style=&quot;white-space: pre;&quot;&gt;&#x9;&lt;/span&gt;返回兜底奖品配置&lt;br&gt;&lt;/div&gt;" style="text;strokeColor=none;fillColor=none;align=left;verticalAlign=top;spacingLeft=4;spacingRight=4;overflow=hidden;rotatable=0;points=[[0,0.5],[1,0.5]];portConstraint=eastwest;whiteSpace=wrap;html=1;" parent="Dooa5Wcz_G5T01U4nuBo-1" vertex="1">
          <mxGeometry y="26" width="250" height="104" as="geometry" />
        </mxCell>
        <mxCell id="Dooa5Wcz_G5T01U4nuBo-5" value="RuleLockLogicTreeNode" style="swimlane;fontStyle=1;align=center;verticalAlign=top;childLayout=stackLayout;horizontal=1;startSize=26;horizontalStack=0;resizeParent=1;resizeParentMax=0;resizeLast=0;collapsible=1;marginBottom=0;whiteSpace=wrap;html=1;" parent="WIyWlLk6GJQsqaUBKTNV-1" vertex="1">
          <mxGeometry x="-320" y="150" width="250" height="130" as="geometry" />
        </mxCell>
        <mxCell id="Dooa5Wcz_G5T01U4nuBo-6" value="+ logic (String userId, Long strategyId, Integer awardId, String ruleValue :&amp;nbsp;&lt;div&gt;&lt;span style=&quot;white-space: pre;&quot;&gt;&#x9;&lt;/span&gt;添加了String ruleValue传入参数&lt;/div&gt;&lt;div&gt;&lt;span style=&quot;white-space: pre;&quot;&gt;&#x9;&lt;/span&gt;比较用户的抽奖次数和ruleValue中的规定的解锁次数 (可能存在配置问题)&lt;/div&gt;" style="text;strokeColor=none;fillColor=none;align=left;verticalAlign=top;spacingLeft=4;spacingRight=4;overflow=hidden;rotatable=0;points=[[0,0.5],[1,0.5]];portConstraint=eastwest;whiteSpace=wrap;html=1;" parent="Dooa5Wcz_G5T01U4nuBo-5" vertex="1">
          <mxGeometry y="26" width="250" height="104" as="geometry" />
        </mxCell>
        <mxCell id="Dooa5Wcz_G5T01U4nuBo-7" value="RuleStockLogicTreeNode" style="swimlane;fontStyle=1;align=center;verticalAlign=top;childLayout=stackLayout;horizontal=1;startSize=26;horizontalStack=0;resizeParent=1;resizeParentMax=0;resizeLast=0;collapsible=1;marginBottom=0;whiteSpace=wrap;html=1;" parent="WIyWlLk6GJQsqaUBKTNV-1" vertex="1">
          <mxGeometry x="-20" y="150" width="250" height="130" as="geometry" />
        </mxCell>
        <mxCell id="Dooa5Wcz_G5T01U4nuBo-8" value="+ logic (String userId, Long strategyId, Integer awardId, String ruleValue :&amp;nbsp;&lt;div&gt;&lt;span style=&quot;white-space: pre;&quot;&gt;&#x9;&lt;/span&gt;添加了String ruleValue传入参数&lt;/div&gt;&lt;div&gt;&lt;span style=&quot;white-space: pre;&quot;&gt;&#x9;&lt;/span&gt;扣减库存, 如果扣减成功, 则写入延迟队列, 返回接管和奖品的信息&lt;br&gt;&lt;span style=&quot;white-space: pre;&quot;&gt;&#x9;&lt;/span&gt;扣减失败, 返回放行&lt;br&gt;&lt;/div&gt;" style="text;strokeColor=none;fillColor=none;align=left;verticalAlign=top;spacingLeft=4;spacingRight=4;overflow=hidden;rotatable=0;points=[[0,0.5],[1,0.5]];portConstraint=eastwest;whiteSpace=wrap;html=1;" parent="Dooa5Wcz_G5T01U4nuBo-7" vertex="1">
          <mxGeometry y="26" width="250" height="104" as="geometry" />
        </mxCell>
        <mxCell id="Dooa5Wcz_G5T01U4nuBo-10" value="&lt;font style=&quot;font-size: 20px;&quot;&gt;关于库存的操作流程&lt;/font&gt;" style="text;html=1;align=center;verticalAlign=middle;resizable=0;points=[];autosize=1;strokeColor=none;fillColor=none;fontStyle=1" parent="WIyWlLk6GJQsqaUBKTNV-1" vertex="1">
          <mxGeometry x="540" y="53" width="200" height="40" as="geometry" />
        </mxCell>
        <mxCell id="Dooa5Wcz_G5T01U4nuBo-15" value="" style="edgeStyle=orthogonalEdgeStyle;rounded=0;orthogonalLoop=1;jettySize=auto;html=1;" parent="WIyWlLk6GJQsqaUBKTNV-1" source="Dooa5Wcz_G5T01U4nuBo-17" target="Dooa5Wcz_G5T01U4nuBo-14" edge="1">
          <mxGeometry relative="1" as="geometry" />
        </mxCell>
        <mxCell id="Dooa5Wcz_G5T01U4nuBo-18" value="" style="edgeStyle=orthogonalEdgeStyle;rounded=0;orthogonalLoop=1;jettySize=auto;html=1;" parent="WIyWlLk6GJQsqaUBKTNV-1" source="Dooa5Wcz_G5T01U4nuBo-11" target="Dooa5Wcz_G5T01U4nuBo-17" edge="1">
          <mxGeometry relative="1" as="geometry" />
        </mxCell>
        <mxCell id="Dooa5Wcz_G5T01U4nuBo-63" value="" style="edgeStyle=orthogonalEdgeStyle;rounded=0;orthogonalLoop=1;jettySize=auto;html=1;" parent="WIyWlLk6GJQsqaUBKTNV-1" source="Dooa5Wcz_G5T01U4nuBo-11" target="Dooa5Wcz_G5T01U4nuBo-62" edge="1">
          <mxGeometry relative="1" as="geometry" />
        </mxCell>
        <mxCell id="Dooa5Wcz_G5T01U4nuBo-11" value="扣减库存" style="rounded=1;whiteSpace=wrap;html=1;" parent="WIyWlLk6GJQsqaUBKTNV-1" vertex="1">
          <mxGeometry x="335" y="150" width="120" height="60" as="geometry" />
        </mxCell>
        <mxCell id="Dooa5Wcz_G5T01U4nuBo-13" value="RuleStockLogicTreeNode::logic" style="text;html=1;align=center;verticalAlign=middle;resizable=0;points=[];autosize=1;strokeColor=none;fillColor=none;fontSize=15;" parent="WIyWlLk6GJQsqaUBKTNV-1" vertex="1">
          <mxGeometry x="280" y="103" width="230" height="30" as="geometry" />
        </mxCell>
        <mxCell id="Dooa5Wcz_G5T01U4nuBo-21" value="" style="edgeStyle=orthogonalEdgeStyle;rounded=0;orthogonalLoop=1;jettySize=auto;html=1;" parent="WIyWlLk6GJQsqaUBKTNV-1" source="Dooa5Wcz_G5T01U4nuBo-14" target="Dooa5Wcz_G5T01U4nuBo-20" edge="1">
          <mxGeometry relative="1" as="geometry" />
        </mxCell>
        <mxCell id="Dooa5Wcz_G5T01U4nuBo-14" value="strategyDispatch.subtractionAwardStock" style="whiteSpace=wrap;html=1;rounded=1;" parent="WIyWlLk6GJQsqaUBKTNV-1" vertex="1">
          <mxGeometry x="760" y="155" width="240" height="50" as="geometry" />
        </mxCell>
        <mxCell id="Dooa5Wcz_G5T01U4nuBo-19" value="" style="edgeStyle=orthogonalEdgeStyle;rounded=0;orthogonalLoop=1;jettySize=auto;html=1;" parent="WIyWlLk6GJQsqaUBKTNV-1" source="Dooa5Wcz_G5T01U4nuBo-11" target="Dooa5Wcz_G5T01U4nuBo-17" edge="1">
          <mxGeometry relative="1" as="geometry">
            <mxPoint x="455" y="180" as="sourcePoint" />
            <mxPoint x="660" y="180" as="targetPoint" />
          </mxGeometry>
        </mxCell>
        <mxCell id="Dooa5Wcz_G5T01U4nuBo-17" value="strategyId&lt;br&gt;awardId" style="shape=parallelogram;perimeter=parallelogramPerimeter;whiteSpace=wrap;html=1;fixedSize=1;rounded=1;" parent="WIyWlLk6GJQsqaUBKTNV-1" vertex="1">
          <mxGeometry x="500" y="150" width="120" height="60" as="geometry" />
        </mxCell>
        <mxCell id="Dooa5Wcz_G5T01U4nuBo-23" value="" style="edgeStyle=orthogonalEdgeStyle;rounded=0;orthogonalLoop=1;jettySize=auto;html=1;" parent="WIyWlLk6GJQsqaUBKTNV-1" source="Dooa5Wcz_G5T01U4nuBo-20" target="Dooa5Wcz_G5T01U4nuBo-22" edge="1">
          <mxGeometry relative="1" as="geometry" />
        </mxCell>
        <mxCell id="Dooa5Wcz_G5T01U4nuBo-20" value="通过strategyId和award组合成唯一key" style="whiteSpace=wrap;html=1;rounded=1;" parent="WIyWlLk6GJQsqaUBKTNV-1" vertex="1">
          <mxGeometry x="820" y="230" width="120" height="60" as="geometry" />
        </mxCell>
        <mxCell id="Dooa5Wcz_G5T01U4nuBo-25" value="" style="edgeStyle=orthogonalEdgeStyle;rounded=0;orthogonalLoop=1;jettySize=auto;html=1;" parent="WIyWlLk6GJQsqaUBKTNV-1" source="Dooa5Wcz_G5T01U4nuBo-26" target="Dooa5Wcz_G5T01U4nuBo-24" edge="1">
          <mxGeometry relative="1" as="geometry" />
        </mxCell>
        <mxCell id="Dooa5Wcz_G5T01U4nuBo-27" value="" style="edgeStyle=orthogonalEdgeStyle;rounded=0;orthogonalLoop=1;jettySize=auto;html=1;" parent="WIyWlLk6GJQsqaUBKTNV-1" source="Dooa5Wcz_G5T01U4nuBo-22" target="Dooa5Wcz_G5T01U4nuBo-26" edge="1">
          <mxGeometry relative="1" as="geometry" />
        </mxCell>
        <mxCell id="Dooa5Wcz_G5T01U4nuBo-22" value="通过cacheKey从仓储层执行删减库存操作" style="whiteSpace=wrap;html=1;rounded=1;" parent="WIyWlLk6GJQsqaUBKTNV-1" vertex="1">
          <mxGeometry x="820" y="320" width="120" height="60" as="geometry" />
        </mxCell>
        <mxCell id="Dooa5Wcz_G5T01U4nuBo-30" value="" style="edgeStyle=orthogonalEdgeStyle;rounded=0;orthogonalLoop=1;jettySize=auto;html=1;" parent="WIyWlLk6GJQsqaUBKTNV-1" source="Dooa5Wcz_G5T01U4nuBo-24" target="Dooa5Wcz_G5T01U4nuBo-29" edge="1">
          <mxGeometry relative="1" as="geometry" />
        </mxCell>
        <mxCell id="Dooa5Wcz_G5T01U4nuBo-24" value="repositpry.subtractionAwardStock : Boolean" style="whiteSpace=wrap;html=1;rounded=1;" parent="WIyWlLk6GJQsqaUBKTNV-1" vertex="1">
          <mxGeometry x="980" y="320" width="190" height="60" as="geometry" />
        </mxCell>
        <mxCell id="Dooa5Wcz_G5T01U4nuBo-28" value="" style="edgeStyle=orthogonalEdgeStyle;rounded=0;orthogonalLoop=1;jettySize=auto;html=1;" parent="WIyWlLk6GJQsqaUBKTNV-1" source="Dooa5Wcz_G5T01U4nuBo-22" target="Dooa5Wcz_G5T01U4nuBo-26" edge="1">
          <mxGeometry relative="1" as="geometry">
            <mxPoint x="940" y="350" as="sourcePoint" />
            <mxPoint x="1130" y="350" as="targetPoint" />
          </mxGeometry>
        </mxCell>
        <mxCell id="Dooa5Wcz_G5T01U4nuBo-26" value="cacheKey" style="shape=parallelogram;perimeter=parallelogramPerimeter;whiteSpace=wrap;html=1;fixedSize=1;rounded=1;" parent="WIyWlLk6GJQsqaUBKTNV-1" vertex="1">
          <mxGeometry x="820" y="410" width="120" height="60" as="geometry" />
        </mxCell>
        <mxCell id="Dooa5Wcz_G5T01U4nuBo-37" value="" style="edgeStyle=orthogonalEdgeStyle;rounded=0;orthogonalLoop=1;jettySize=auto;html=1;" parent="WIyWlLk6GJQsqaUBKTNV-1" source="Dooa5Wcz_G5T01U4nuBo-29" target="Dooa5Wcz_G5T01U4nuBo-36" edge="1">
          <mxGeometry relative="1" as="geometry" />
        </mxCell>
        <mxCell id="Dooa5Wcz_G5T01U4nuBo-29" value="将cacheKey中存储的值-1, 通过redisService.derc" style="whiteSpace=wrap;html=1;rounded=1;" parent="WIyWlLk6GJQsqaUBKTNV-1" vertex="1">
          <mxGeometry x="1015" y="400" width="120" height="60" as="geometry" />
        </mxCell>
        <mxCell id="Dooa5Wcz_G5T01U4nuBo-39" value="" style="edgeStyle=orthogonalEdgeStyle;rounded=0;orthogonalLoop=1;jettySize=auto;html=1;" parent="WIyWlLk6GJQsqaUBKTNV-1" source="Dooa5Wcz_G5T01U4nuBo-36" target="Dooa5Wcz_G5T01U4nuBo-38" edge="1">
          <mxGeometry relative="1" as="geometry" />
        </mxCell>
        <mxCell id="Dooa5Wcz_G5T01U4nuBo-36" value="-1后的剩余库存" style="shape=parallelogram;perimeter=parallelogramPerimeter;whiteSpace=wrap;html=1;fixedSize=1;rounded=1;" parent="WIyWlLk6GJQsqaUBKTNV-1" vertex="1">
          <mxGeometry x="1015" y="480" width="120" height="60" as="geometry" />
        </mxCell>
        <mxCell id="Dooa5Wcz_G5T01U4nuBo-41" value="" style="edgeStyle=orthogonalEdgeStyle;rounded=0;orthogonalLoop=1;jettySize=auto;html=1;" parent="WIyWlLk6GJQsqaUBKTNV-1" source="Dooa5Wcz_G5T01U4nuBo-38" target="Dooa5Wcz_G5T01U4nuBo-40" edge="1">
          <mxGeometry relative="1" as="geometry" />
        </mxCell>
        <mxCell id="Dooa5Wcz_G5T01U4nuBo-42" value="&lt;font style=&quot;font-size: 13px;&quot;&gt;True&lt;/font&gt;" style="edgeLabel;html=1;align=center;verticalAlign=middle;resizable=0;points=[];" parent="Dooa5Wcz_G5T01U4nuBo-41" vertex="1" connectable="0">
          <mxGeometry x="-0.0386" y="-3" relative="1" as="geometry">
            <mxPoint as="offset" />
          </mxGeometry>
        </mxCell>
        <mxCell id="Dooa5Wcz_G5T01U4nuBo-44" value="" style="edgeStyle=orthogonalEdgeStyle;rounded=0;orthogonalLoop=1;jettySize=auto;html=1;" parent="WIyWlLk6GJQsqaUBKTNV-1" source="Dooa5Wcz_G5T01U4nuBo-38" target="Dooa5Wcz_G5T01U4nuBo-43" edge="1">
          <mxGeometry relative="1" as="geometry" />
        </mxCell>
        <mxCell id="Dooa5Wcz_G5T01U4nuBo-46" value="&lt;font style=&quot;font-size: 13px;&quot;&gt;False&lt;/font&gt;" style="edgeLabel;html=1;align=center;verticalAlign=middle;resizable=0;points=[];" parent="Dooa5Wcz_G5T01U4nuBo-44" vertex="1" connectable="0">
          <mxGeometry x="-0.1407" y="-1" relative="1" as="geometry">
            <mxPoint as="offset" />
          </mxGeometry>
        </mxCell>
        <mxCell id="Dooa5Wcz_G5T01U4nuBo-38" value="surplus &amp;lt; 0" style="rhombus;whiteSpace=wrap;html=1;rounded=1;" parent="WIyWlLk6GJQsqaUBKTNV-1" vertex="1">
          <mxGeometry x="1035" y="560" width="80" height="80" as="geometry" />
        </mxCell>
        <mxCell id="Dooa5Wcz_G5T01U4nuBo-40" value="设置库存数量为0, 返回false, 说明库存不足" style="whiteSpace=wrap;html=1;rounded=1;" parent="WIyWlLk6GJQsqaUBKTNV-1" vertex="1">
          <mxGeometry x="1210" y="570" width="120" height="60" as="geometry" />
        </mxCell>
        <mxCell id="Dooa5Wcz_G5T01U4nuBo-49" style="edgeStyle=orthogonalEdgeStyle;rounded=0;orthogonalLoop=1;jettySize=auto;html=1;entryX=0.5;entryY=0;entryDx=0;entryDy=0;" parent="WIyWlLk6GJQsqaUBKTNV-1" source="Dooa5Wcz_G5T01U4nuBo-43" target="Dooa5Wcz_G5T01U4nuBo-47" edge="1">
          <mxGeometry relative="1" as="geometry" />
        </mxCell>
        <mxCell id="Dooa5Wcz_G5T01U4nuBo-43" value="lockKey = cacheKey + _ + surplus" style="shape=parallelogram;perimeter=parallelogramPerimeter;whiteSpace=wrap;html=1;fixedSize=1;rounded=1;" parent="WIyWlLk6GJQsqaUBKTNV-1" vertex="1">
          <mxGeometry x="987.5" y="690" width="175" height="60" as="geometry" />
        </mxCell>
        <mxCell id="Dooa5Wcz_G5T01U4nuBo-54" value="" style="edgeStyle=orthogonalEdgeStyle;rounded=0;orthogonalLoop=1;jettySize=auto;html=1;" parent="WIyWlLk6GJQsqaUBKTNV-1" source="Dooa5Wcz_G5T01U4nuBo-47" target="Dooa5Wcz_G5T01U4nuBo-53" edge="1">
          <mxGeometry relative="1" as="geometry" />
        </mxCell>
        <mxCell id="Dooa5Wcz_G5T01U4nuBo-47" value="redisService.setNx : Boolean" style="whiteSpace=wrap;html=1;rounded=1;" parent="WIyWlLk6GJQsqaUBKTNV-1" vertex="1">
          <mxGeometry x="1015" y="800" width="120" height="60" as="geometry" />
        </mxCell>
        <mxCell id="Dooa5Wcz_G5T01U4nuBo-50" value="为现在剩余库存数量加锁&lt;br&gt;相当于记录了哪些值我们已经访问过了" style="text;html=1;align=center;verticalAlign=middle;resizable=0;points=[];autosize=1;strokeColor=none;fillColor=none;" parent="WIyWlLk6GJQsqaUBKTNV-1" vertex="1">
          <mxGeometry x="1090" y="760" width="230" height="40" as="geometry" />
        </mxCell>
        <mxCell id="Dooa5Wcz_G5T01U4nuBo-56" value="" style="edgeStyle=orthogonalEdgeStyle;rounded=0;orthogonalLoop=1;jettySize=auto;html=1;" parent="WIyWlLk6GJQsqaUBKTNV-1" source="Dooa5Wcz_G5T01U4nuBo-53" target="Dooa5Wcz_G5T01U4nuBo-55" edge="1">
          <mxGeometry relative="1" as="geometry" />
        </mxCell>
        <mxCell id="Dooa5Wcz_G5T01U4nuBo-59" value="&lt;font style=&quot;font-size: 13px;&quot;&gt;No&lt;/font&gt;" style="edgeLabel;html=1;align=center;verticalAlign=middle;resizable=0;points=[];" parent="Dooa5Wcz_G5T01U4nuBo-56" vertex="1" connectable="0">
          <mxGeometry x="-0.1082" y="2" relative="1" as="geometry">
            <mxPoint as="offset" />
          </mxGeometry>
        </mxCell>
        <mxCell id="Dooa5Wcz_G5T01U4nuBo-58" value="" style="edgeStyle=orthogonalEdgeStyle;rounded=0;orthogonalLoop=1;jettySize=auto;html=1;" parent="WIyWlLk6GJQsqaUBKTNV-1" source="Dooa5Wcz_G5T01U4nuBo-53" target="Dooa5Wcz_G5T01U4nuBo-57" edge="1">
          <mxGeometry relative="1" as="geometry" />
        </mxCell>
        <mxCell id="Dooa5Wcz_G5T01U4nuBo-53" value="为这个剩余库存数量加锁" style="rhombus;whiteSpace=wrap;html=1;rounded=1;" parent="WIyWlLk6GJQsqaUBKTNV-1" vertex="1">
          <mxGeometry x="1006.25" y="880" width="137.5" height="100" as="geometry" />
        </mxCell>
        <mxCell id="Dooa5Wcz_G5T01U4nuBo-61" value="" style="edgeStyle=orthogonalEdgeStyle;rounded=0;orthogonalLoop=1;jettySize=auto;html=1;" parent="WIyWlLk6GJQsqaUBKTNV-1" source="Dooa5Wcz_G5T01U4nuBo-55" target="Dooa5Wcz_G5T01U4nuBo-60" edge="1">
          <mxGeometry relative="1" as="geometry" />
        </mxCell>
        <mxCell id="Dooa5Wcz_G5T01U4nuBo-55" value="获取锁失败, 说明这个key也就是这个数量我们已经获取过了" style="whiteSpace=wrap;html=1;rounded=1;" parent="WIyWlLk6GJQsqaUBKTNV-1" vertex="1">
          <mxGeometry x="1240" y="900" width="120" height="60" as="geometry" />
        </mxCell>
        <mxCell id="Dooa5Wcz_G5T01U4nuBo-57" value="返回true, 表示获取成功" style="whiteSpace=wrap;html=1;rounded=1;" parent="WIyWlLk6GJQsqaUBKTNV-1" vertex="1">
          <mxGeometry x="1015" y="1030" width="120" height="60" as="geometry" />
        </mxCell>
        <mxCell id="Dooa5Wcz_G5T01U4nuBo-60" value="返回false" style="whiteSpace=wrap;html=1;rounded=1;" parent="WIyWlLk6GJQsqaUBKTNV-1" vertex="1">
          <mxGeometry x="1240" y="1030" width="120" height="60" as="geometry" />
        </mxCell>
        <mxCell id="Dooa5Wcz_G5T01U4nuBo-67" value="" style="edgeStyle=orthogonalEdgeStyle;rounded=0;orthogonalLoop=1;jettySize=auto;html=1;" parent="WIyWlLk6GJQsqaUBKTNV-1" source="Dooa5Wcz_G5T01U4nuBo-62" target="Dooa5Wcz_G5T01U4nuBo-66" edge="1">
          <mxGeometry relative="1" as="geometry" />
        </mxCell>
        <mxCell id="Dooa5Wcz_G5T01U4nuBo-62" value="status :&amp;nbsp;&lt;br&gt;执行扣减是否成功" style="shape=parallelogram;perimeter=parallelogramPerimeter;whiteSpace=wrap;html=1;fixedSize=1;rounded=1;" parent="WIyWlLk6GJQsqaUBKTNV-1" vertex="1">
          <mxGeometry x="335" y="240" width="120" height="60" as="geometry" />
        </mxCell>
        <mxCell id="Dooa5Wcz_G5T01U4nuBo-69" value="" style="edgeStyle=orthogonalEdgeStyle;rounded=0;orthogonalLoop=1;jettySize=auto;html=1;" parent="WIyWlLk6GJQsqaUBKTNV-1" source="Dooa5Wcz_G5T01U4nuBo-66" target="Dooa5Wcz_G5T01U4nuBo-68" edge="1">
          <mxGeometry relative="1" as="geometry" />
        </mxCell>
        <mxCell id="Dooa5Wcz_G5T01U4nuBo-70" value="false" style="edgeLabel;html=1;align=center;verticalAlign=middle;resizable=0;points=[];" parent="Dooa5Wcz_G5T01U4nuBo-69" vertex="1" connectable="0">
          <mxGeometry x="-0.1053" y="1" relative="1" as="geometry">
            <mxPoint as="offset" />
          </mxGeometry>
        </mxCell>
        <mxCell id="Dooa5Wcz_G5T01U4nuBo-72" value="" style="edgeStyle=orthogonalEdgeStyle;rounded=0;orthogonalLoop=1;jettySize=auto;html=1;" parent="WIyWlLk6GJQsqaUBKTNV-1" source="Dooa5Wcz_G5T01U4nuBo-66" target="Dooa5Wcz_G5T01U4nuBo-71" edge="1">
          <mxGeometry relative="1" as="geometry" />
        </mxCell>
        <mxCell id="Dooa5Wcz_G5T01U4nuBo-73" value="true" style="edgeLabel;html=1;align=center;verticalAlign=middle;resizable=0;points=[];" parent="Dooa5Wcz_G5T01U4nuBo-72" vertex="1" connectable="0">
          <mxGeometry x="-0.0373" relative="1" as="geometry">
            <mxPoint as="offset" />
          </mxGeometry>
        </mxCell>
        <mxCell id="Dooa5Wcz_G5T01U4nuBo-66" value="扣减成功" style="rhombus;whiteSpace=wrap;html=1;rounded=1;" parent="WIyWlLk6GJQsqaUBKTNV-1" vertex="1">
          <mxGeometry x="355" y="330" width="80" height="80" as="geometry" />
        </mxCell>
        <mxCell id="Dooa5Wcz_G5T01U4nuBo-68" value="返回放行" style="whiteSpace=wrap;html=1;rounded=1;" parent="WIyWlLk6GJQsqaUBKTNV-1" vertex="1">
          <mxGeometry x="495" y="340" width="120" height="60" as="geometry" />
        </mxCell>
        <mxCell id="Dooa5Wcz_G5T01U4nuBo-75" value="" style="edgeStyle=orthogonalEdgeStyle;rounded=0;orthogonalLoop=1;jettySize=auto;html=1;" parent="WIyWlLk6GJQsqaUBKTNV-1" source="Dooa5Wcz_G5T01U4nuBo-71" target="Dooa5Wcz_G5T01U4nuBo-74" edge="1">
          <mxGeometry relative="1" as="geometry" />
        </mxCell>
        <mxCell id="Dooa5Wcz_G5T01U4nuBo-71" value="将扣减的行为写入延迟队列" style="whiteSpace=wrap;html=1;rounded=1;" parent="WIyWlLk6GJQsqaUBKTNV-1" vertex="1">
          <mxGeometry x="335" y="460" width="120" height="60" as="geometry" />
        </mxCell>
        <mxCell id="Dooa5Wcz_G5T01U4nuBo-77" value="" style="edgeStyle=orthogonalEdgeStyle;rounded=0;orthogonalLoop=1;jettySize=auto;html=1;" parent="WIyWlLk6GJQsqaUBKTNV-1" source="Dooa5Wcz_G5T01U4nuBo-74" target="Dooa5Wcz_G5T01U4nuBo-76" edge="1">
          <mxGeometry relative="1" as="geometry" />
        </mxCell>
        <mxCell id="Dooa5Wcz_G5T01U4nuBo-74" value="StrategyAwardStockKeyVO" style="shape=parallelogram;perimeter=parallelogramPerimeter;whiteSpace=wrap;html=1;fixedSize=1;rounded=1;" parent="WIyWlLk6GJQsqaUBKTNV-1" vertex="1">
          <mxGeometry x="302.5" y="550" width="185" height="60" as="geometry" />
        </mxCell>
        <mxCell id="Dooa5Wcz_G5T01U4nuBo-79" value="" style="edgeStyle=orthogonalEdgeStyle;rounded=0;orthogonalLoop=1;jettySize=auto;html=1;" parent="WIyWlLk6GJQsqaUBKTNV-1" source="Dooa5Wcz_G5T01U4nuBo-76" target="Dooa5Wcz_G5T01U4nuBo-78" edge="1">
          <mxGeometry relative="1" as="geometry" />
        </mxCell>
        <mxCell id="tSwcjx71p-jMXjv4zV67-3" value="" style="edgeStyle=orthogonalEdgeStyle;rounded=0;orthogonalLoop=1;jettySize=auto;html=1;" parent="WIyWlLk6GJQsqaUBKTNV-1" source="Dooa5Wcz_G5T01U4nuBo-76" target="tSwcjx71p-jMXjv4zV67-2" edge="1">
          <mxGeometry relative="1" as="geometry" />
        </mxCell>
        <mxCell id="Dooa5Wcz_G5T01U4nuBo-76" value="awardStockComsumeSendQueue" style="whiteSpace=wrap;html=1;rounded=1;" parent="WIyWlLk6GJQsqaUBKTNV-1" vertex="1">
          <mxGeometry x="287.5" y="660" width="215" height="50" as="geometry" />
        </mxCell>
        <mxCell id="Dooa5Wcz_G5T01U4nuBo-82" value="" style="edgeStyle=orthogonalEdgeStyle;rounded=0;orthogonalLoop=1;jettySize=auto;html=1;" parent="WIyWlLk6GJQsqaUBKTNV-1" source="Dooa5Wcz_G5T01U4nuBo-78" target="Dooa5Wcz_G5T01U4nuBo-81" edge="1">
          <mxGeometry relative="1" as="geometry" />
        </mxCell>
        <mxCell id="Dooa5Wcz_G5T01U4nuBo-78" value="从Redis中通过cacheKey获取到延迟队列" style="whiteSpace=wrap;html=1;rounded=1;" parent="WIyWlLk6GJQsqaUBKTNV-1" vertex="1">
          <mxGeometry x="540" y="655" width="120" height="60" as="geometry" />
        </mxCell>
        <mxCell id="Dooa5Wcz_G5T01U4nuBo-80" value="将奖品信息填添加到延迟队列中, &lt;br&gt;延迟3s以后才能从阻塞队列中获取到这个获奖的信息&lt;br&gt;修改数据库" style="text;html=1;align=center;verticalAlign=middle;resizable=0;points=[];autosize=1;strokeColor=none;fillColor=none;" parent="WIyWlLk6GJQsqaUBKTNV-1" vertex="1">
          <mxGeometry x="20" y="600" width="300" height="60" as="geometry" />
        </mxCell>
        <mxCell id="Dooa5Wcz_G5T01U4nuBo-84" value="" style="edgeStyle=orthogonalEdgeStyle;rounded=0;orthogonalLoop=1;jettySize=auto;html=1;" parent="WIyWlLk6GJQsqaUBKTNV-1" source="Dooa5Wcz_G5T01U4nuBo-81" target="Dooa5Wcz_G5T01U4nuBo-83" edge="1">
          <mxGeometry relative="1" as="geometry" />
        </mxCell>
        <mxCell id="Dooa5Wcz_G5T01U4nuBo-81" value="通过阻塞队列创建延迟队列" style="whiteSpace=wrap;html=1;rounded=1;" parent="WIyWlLk6GJQsqaUBKTNV-1" vertex="1">
          <mxGeometry x="540" y="755" width="120" height="60" as="geometry" />
        </mxCell>
        <mxCell id="Dooa5Wcz_G5T01U4nuBo-83" value="将获奖的信息存入延迟队列中, 延迟事件3s" style="whiteSpace=wrap;html=1;rounded=1;" parent="WIyWlLk6GJQsqaUBKTNV-1" vertex="1">
          <mxGeometry x="540" y="855" width="120" height="60" as="geometry" />
        </mxCell>
        <mxCell id="Dooa5Wcz_G5T01U4nuBo-86" value="&lt;b&gt;StrategyAwardStockKeyVO&lt;/b&gt;" style="swimlane;fontStyle=0;childLayout=stackLayout;horizontal=1;startSize=26;fillColor=none;horizontalStack=0;resizeParent=1;resizeParentMax=0;resizeLast=0;collapsible=1;marginBottom=0;whiteSpace=wrap;html=1;" parent="WIyWlLk6GJQsqaUBKTNV-1" vertex="1">
          <mxGeometry x="-620" y="460" width="200" height="120" as="geometry" />
        </mxCell>
        <mxCell id="Dooa5Wcz_G5T01U4nuBo-87" value="在repository中的各个接口中传递, 用于拼装key&lt;br&gt;+ strategyId : Long&lt;div&gt;+ awardId : Integer&lt;/div&gt;" style="text;strokeColor=none;fillColor=none;align=left;verticalAlign=top;spacingLeft=4;spacingRight=4;overflow=hidden;rotatable=0;points=[[0,0.5],[1,0.5]];portConstraint=eastwest;whiteSpace=wrap;html=1;fontStyle=0" parent="Dooa5Wcz_G5T01U4nuBo-86" vertex="1">
          <mxGeometry y="26" width="200" height="94" as="geometry" />
        </mxCell>
        <mxCell id="Dooa5Wcz_G5T01U4nuBo-90" value="&lt;font style=&quot;font-size: 20px;&quot;&gt;VO对象&lt;/font&gt;" style="text;html=1;align=center;verticalAlign=middle;resizable=0;points=[];autosize=1;strokeColor=none;fillColor=none;fontStyle=1" parent="WIyWlLk6GJQsqaUBKTNV-1" vertex="1">
          <mxGeometry x="-795" y="430" width="90" height="40" as="geometry" />
        </mxCell>
        <mxCell id="tSwcjx71p-jMXjv4zV67-1" value="&lt;b&gt;&lt;font style=&quot;font-size: 20px;&quot;&gt;ILogicTreeNode的实现类&lt;/font&gt;&lt;/b&gt;" style="text;html=1;align=center;verticalAlign=middle;resizable=0;points=[];autosize=1;strokeColor=none;fillColor=none;" parent="WIyWlLk6GJQsqaUBKTNV-1" vertex="1">
          <mxGeometry x="-795" y="93" width="250" height="40" as="geometry" />
        </mxCell>
        <mxCell id="tSwcjx71p-jMXjv4zV67-2" value="返回TreeActionEntity, 接管" style="rounded=1;whiteSpace=wrap;html=1;" parent="WIyWlLk6GJQsqaUBKTNV-1" vertex="1">
          <mxGeometry x="335" y="750" width="120" height="60" as="geometry" />
        </mxCell>
        <mxCell id="IyqTNhM_q4GYK48droa2-0" value="&lt;b&gt;&lt;font style=&quot;font-size: 20px;&quot;&gt;抽奖库存相关接口&lt;/font&gt;&lt;/b&gt;" style="text;html=1;align=center;verticalAlign=middle;resizable=0;points=[];autosize=1;strokeColor=none;fillColor=none;" vertex="1" parent="WIyWlLk6GJQsqaUBKTNV-1">
          <mxGeometry x="-820" y="675" width="180" height="40" as="geometry" />
        </mxCell>
        <mxCell id="IyqTNhM_q4GYK48droa2-1" value="&lt;p style=&quot;margin:0px;margin-top:4px;text-align:center;&quot;&gt;&lt;i&gt;&amp;lt;&amp;lt;Interface&amp;gt;&amp;gt;&lt;/i&gt;&lt;br&gt;&lt;b&gt;IRaffleStock&lt;/b&gt;&lt;/p&gt;&lt;p style=&quot;margin:0px;margin-left:4px;&quot;&gt;&lt;br&gt;&lt;/p&gt;&lt;hr size=&quot;1&quot; style=&quot;border-style:solid;&quot;&gt;&lt;p style=&quot;margin:0px;margin-left:4px;&quot;&gt;+ takeQueueValue() : StrategyAwardStockKeyVO&lt;/p&gt;&lt;p style=&quot;margin:0px;margin-left:4px;&quot;&gt;获取奖品库存消耗队列&lt;/p&gt;&lt;p style=&quot;margin:0px;margin-left:4px;&quot;&gt;+ updateStrategyAwardStock(Long strategyId,&amp;nbsp; Integer awardId)&lt;/p&gt;&lt;p style=&quot;margin:0px;margin-left:4px;&quot;&gt;更新数据库&lt;/p&gt;" style="verticalAlign=top;align=left;overflow=fill;html=1;whiteSpace=wrap;" vertex="1" parent="WIyWlLk6GJQsqaUBKTNV-1">
          <mxGeometry x="-620" y="690" width="190" height="160" as="geometry" />
        </mxCell>
        <mxCell id="IyqTNhM_q4GYK48droa2-12" value="" style="edgeStyle=orthogonalEdgeStyle;rounded=0;orthogonalLoop=1;jettySize=auto;html=1;" edge="1" parent="WIyWlLk6GJQsqaUBKTNV-1" source="IyqTNhM_q4GYK48droa2-2" target="IyqTNhM_q4GYK48droa2-10">
          <mxGeometry relative="1" as="geometry" />
        </mxCell>
        <mxCell id="IyqTNhM_q4GYK48droa2-2" value="DefaultRaffleStrategy" style="swimlane;fontStyle=1;align=center;verticalAlign=top;childLayout=stackLayout;horizontal=1;startSize=26;horizontalStack=0;resizeParent=1;resizeParentMax=0;resizeLast=0;collapsible=1;marginBottom=0;whiteSpace=wrap;html=1;" vertex="1" parent="WIyWlLk6GJQsqaUBKTNV-1">
          <mxGeometry x="-90" y="695" width="160" height="150" as="geometry" />
        </mxCell>
        <mxCell id="IyqTNhM_q4GYK48droa2-5" value="&lt;p style=&quot;margin: 0px 0px 0px 4px;&quot;&gt;+ takeQueueValue() : StrategyAwardStockKeyVO&lt;/p&gt;&lt;p style=&quot;margin: 0px 0px 0px 4px;&quot;&gt;获取奖品库存消耗队列&lt;/p&gt;&lt;p style=&quot;margin: 0px 0px 0px 4px;&quot;&gt;+ updateStrategyAwardStock(Long strategyId,&amp;nbsp; Integer awardId)&lt;/p&gt;&lt;p style=&quot;margin: 0px 0px 0px 4px;&quot;&gt;更新数据库&lt;/p&gt;" style="text;strokeColor=none;fillColor=none;align=left;verticalAlign=top;spacingLeft=4;spacingRight=4;overflow=hidden;rotatable=0;points=[[0,0.5],[1,0.5]];portConstraint=eastwest;whiteSpace=wrap;html=1;" vertex="1" parent="IyqTNhM_q4GYK48droa2-2">
          <mxGeometry y="26" width="160" height="124" as="geometry" />
        </mxCell>
        <mxCell id="IyqTNhM_q4GYK48droa2-13" style="edgeStyle=orthogonalEdgeStyle;rounded=0;orthogonalLoop=1;jettySize=auto;html=1;" edge="1" parent="WIyWlLk6GJQsqaUBKTNV-1" source="IyqTNhM_q4GYK48droa2-10" target="IyqTNhM_q4GYK48droa2-1">
          <mxGeometry relative="1" as="geometry" />
        </mxCell>
        <mxCell id="IyqTNhM_q4GYK48droa2-10" value="AbstracttRaffleStrategy" style="swimlane;fontStyle=1;align=center;verticalAlign=top;childLayout=stackLayout;horizontal=1;startSize=26;horizontalStack=0;resizeParent=1;resizeParentMax=0;resizeLast=0;collapsible=1;marginBottom=0;whiteSpace=wrap;html=1;" vertex="1" parent="WIyWlLk6GJQsqaUBKTNV-1">
          <mxGeometry x="-330" y="695" width="160" height="150" as="geometry" />
        </mxCell>
        <mxCell id="IyqTNhM_q4GYK48droa2-11" value="&lt;p style=&quot;margin: 0px 0px 0px 4px;&quot;&gt;+ takeQueueValue() : StrategyAwardStockKeyVO&lt;/p&gt;&lt;p style=&quot;margin: 0px 0px 0px 4px;&quot;&gt;获取奖品库存消耗队列&lt;/p&gt;&lt;p style=&quot;margin: 0px 0px 0px 4px;&quot;&gt;+ updateStrategyAwardStock(Long strategyId,&amp;nbsp; Integer awardId)&lt;/p&gt;&lt;p style=&quot;margin: 0px 0px 0px 4px;&quot;&gt;更新数据库&lt;/p&gt;" style="text;strokeColor=none;fillColor=none;align=left;verticalAlign=top;spacingLeft=4;spacingRight=4;overflow=hidden;rotatable=0;points=[[0,0.5],[1,0.5]];portConstraint=eastwest;whiteSpace=wrap;html=1;" vertex="1" parent="IyqTNhM_q4GYK48droa2-10">
          <mxGeometry y="26" width="160" height="124" as="geometry" />
        </mxCell>
        <mxCell id="IyqTNhM_q4GYK48droa2-14" value="&lt;b&gt;&lt;font style=&quot;font-size: 20px;&quot;&gt;定期任务&lt;/font&gt;&lt;/b&gt;" style="text;html=1;align=center;verticalAlign=middle;resizable=0;points=[];autosize=1;strokeColor=none;fillColor=none;" vertex="1" parent="WIyWlLk6GJQsqaUBKTNV-1">
          <mxGeometry x="1430" y="53" width="100" height="40" as="geometry" />
        </mxCell>
        <mxCell id="IyqTNhM_q4GYK48droa2-17" value="" style="edgeStyle=orthogonalEdgeStyle;rounded=0;orthogonalLoop=1;jettySize=auto;html=1;" edge="1" parent="WIyWlLk6GJQsqaUBKTNV-1" source="IyqTNhM_q4GYK48droa2-15" target="IyqTNhM_q4GYK48droa2-16">
          <mxGeometry relative="1" as="geometry" />
        </mxCell>
        <mxCell id="IyqTNhM_q4GYK48droa2-15" value="UpdateAwardStockJob :: exec" style="ellipse;whiteSpace=wrap;html=1;rounded=1;" vertex="1" parent="WIyWlLk6GJQsqaUBKTNV-1">
          <mxGeometry x="1581.5" y="130" width="130" height="80" as="geometry" />
        </mxCell>
        <mxCell id="IyqTNhM_q4GYK48droa2-19" value="" style="edgeStyle=orthogonalEdgeStyle;rounded=0;orthogonalLoop=1;jettySize=auto;html=1;" edge="1" parent="WIyWlLk6GJQsqaUBKTNV-1" source="IyqTNhM_q4GYK48droa2-16" target="IyqTNhM_q4GYK48droa2-18">
          <mxGeometry relative="1" as="geometry" />
        </mxCell>
        <mxCell id="IyqTNhM_q4GYK48droa2-29" style="edgeStyle=orthogonalEdgeStyle;rounded=0;orthogonalLoop=1;jettySize=auto;html=1;entryX=0.5;entryY=0;entryDx=0;entryDy=0;" edge="1" parent="WIyWlLk6GJQsqaUBKTNV-1" source="IyqTNhM_q4GYK48droa2-16" target="IyqTNhM_q4GYK48droa2-25">
          <mxGeometry relative="1" as="geometry" />
        </mxCell>
        <mxCell id="IyqTNhM_q4GYK48droa2-16" value="从延迟队列中获取需要更新的奖品" style="whiteSpace=wrap;html=1;rounded=1;" vertex="1" parent="WIyWlLk6GJQsqaUBKTNV-1">
          <mxGeometry x="1586.5" y="250" width="120" height="60" as="geometry" />
        </mxCell>
        <mxCell id="IyqTNhM_q4GYK48droa2-21" value="" style="edgeStyle=orthogonalEdgeStyle;rounded=0;orthogonalLoop=1;jettySize=auto;html=1;" edge="1" parent="WIyWlLk6GJQsqaUBKTNV-1" source="IyqTNhM_q4GYK48droa2-18" target="IyqTNhM_q4GYK48droa2-20">
          <mxGeometry relative="1" as="geometry" />
        </mxCell>
        <mxCell id="IyqTNhM_q4GYK48droa2-18" value="IRaffleStock.takeQueueValue" style="whiteSpace=wrap;html=1;rounded=1;" vertex="1" parent="WIyWlLk6GJQsqaUBKTNV-1">
          <mxGeometry x="1786.5" y="250" width="165" height="60" as="geometry" />
        </mxCell>
        <mxCell id="IyqTNhM_q4GYK48droa2-23" value="" style="edgeStyle=orthogonalEdgeStyle;rounded=0;orthogonalLoop=1;jettySize=auto;html=1;" edge="1" parent="WIyWlLk6GJQsqaUBKTNV-1" source="IyqTNhM_q4GYK48droa2-20" target="IyqTNhM_q4GYK48droa2-22">
          <mxGeometry relative="1" as="geometry" />
        </mxCell>
        <mxCell id="IyqTNhM_q4GYK48droa2-20" value="StrategyReposity.takeQueueValue" style="whiteSpace=wrap;html=1;rounded=1;" vertex="1" parent="WIyWlLk6GJQsqaUBKTNV-1">
          <mxGeometry x="1772.75" y="340" width="192.5" height="50" as="geometry" />
        </mxCell>
        <mxCell id="IyqTNhM_q4GYK48droa2-30" style="edgeStyle=orthogonalEdgeStyle;rounded=0;orthogonalLoop=1;jettySize=auto;html=1;entryX=0.75;entryY=1;entryDx=0;entryDy=0;" edge="1" parent="WIyWlLk6GJQsqaUBKTNV-1" source="IyqTNhM_q4GYK48droa2-22" target="IyqTNhM_q4GYK48droa2-25">
          <mxGeometry relative="1" as="geometry" />
        </mxCell>
        <mxCell id="IyqTNhM_q4GYK48droa2-22" value="通过cacheKey从Redis中获取到延迟队列, poll一个元素出来" style="whiteSpace=wrap;html=1;rounded=1;" vertex="1" parent="WIyWlLk6GJQsqaUBKTNV-1">
          <mxGeometry x="1809" y="420" width="120" height="60" as="geometry" />
        </mxCell>
        <mxCell id="IyqTNhM_q4GYK48droa2-34" value="" style="edgeStyle=orthogonalEdgeStyle;rounded=0;orthogonalLoop=1;jettySize=auto;html=1;" edge="1" parent="WIyWlLk6GJQsqaUBKTNV-1" source="IyqTNhM_q4GYK48droa2-25" target="IyqTNhM_q4GYK48droa2-33">
          <mxGeometry relative="1" as="geometry" />
        </mxCell>
        <mxCell id="IyqTNhM_q4GYK48droa2-25" value="StrategyAwardStockKeyVO" style="shape=parallelogram;perimeter=parallelogramPerimeter;whiteSpace=wrap;html=1;fixedSize=1;rounded=1;" vertex="1" parent="WIyWlLk6GJQsqaUBKTNV-1">
          <mxGeometry x="1555.25" y="350" width="182.5" height="60" as="geometry" />
        </mxCell>
        <mxCell id="IyqTNhM_q4GYK48droa2-36" value="" style="edgeStyle=orthogonalEdgeStyle;rounded=0;orthogonalLoop=1;jettySize=auto;html=1;" edge="1" parent="WIyWlLk6GJQsqaUBKTNV-1" source="IyqTNhM_q4GYK48droa2-33" target="IyqTNhM_q4GYK48droa2-35">
          <mxGeometry relative="1" as="geometry" />
        </mxCell>
        <mxCell id="IyqTNhM_q4GYK48droa2-37" value="null" style="edgeLabel;html=1;align=center;verticalAlign=middle;resizable=0;points=[];" vertex="1" connectable="0" parent="IyqTNhM_q4GYK48droa2-36">
          <mxGeometry x="-0.1128" y="2" relative="1" as="geometry">
            <mxPoint as="offset" />
          </mxGeometry>
        </mxCell>
        <mxCell id="IyqTNhM_q4GYK48droa2-39" value="" style="edgeStyle=orthogonalEdgeStyle;rounded=0;orthogonalLoop=1;jettySize=auto;html=1;" edge="1" parent="WIyWlLk6GJQsqaUBKTNV-1" source="IyqTNhM_q4GYK48droa2-33" target="IyqTNhM_q4GYK48droa2-41">
          <mxGeometry relative="1" as="geometry">
            <mxPoint x="1646.5" y="655" as="targetPoint" />
          </mxGeometry>
        </mxCell>
        <mxCell id="IyqTNhM_q4GYK48droa2-40" value="!= null" style="edgeLabel;html=1;align=center;verticalAlign=middle;resizable=0;points=[];" vertex="1" connectable="0" parent="IyqTNhM_q4GYK48droa2-39">
          <mxGeometry x="-0.2983" relative="1" as="geometry">
            <mxPoint as="offset" />
          </mxGeometry>
        </mxCell>
        <mxCell id="IyqTNhM_q4GYK48droa2-33" value="从阻塞队列中&lt;br&gt;获取的元素为空" style="rhombus;whiteSpace=wrap;html=1;rounded=1;" vertex="1" parent="WIyWlLk6GJQsqaUBKTNV-1">
          <mxGeometry x="1584" y="490" width="125" height="120" as="geometry" />
        </mxCell>
        <mxCell id="IyqTNhM_q4GYK48droa2-35" value="return" style="whiteSpace=wrap;html=1;rounded=1;" vertex="1" parent="WIyWlLk6GJQsqaUBKTNV-1">
          <mxGeometry x="1786.5" y="520" width="120" height="60" as="geometry" />
        </mxCell>
        <mxCell id="IyqTNhM_q4GYK48droa2-43" value="" style="edgeStyle=orthogonalEdgeStyle;rounded=0;orthogonalLoop=1;jettySize=auto;html=1;" edge="1" parent="WIyWlLk6GJQsqaUBKTNV-1" source="IyqTNhM_q4GYK48droa2-41" target="IyqTNhM_q4GYK48droa2-42">
          <mxGeometry relative="1" as="geometry" />
        </mxCell>
        <mxCell id="IyqTNhM_q4GYK48droa2-41" value="awardId, strtegyId" style="shape=parallelogram;perimeter=parallelogramPerimeter;whiteSpace=wrap;html=1;fixedSize=1;" vertex="1" parent="WIyWlLk6GJQsqaUBKTNV-1">
          <mxGeometry x="1550.25" y="660" width="192.5" height="60" as="geometry" />
        </mxCell>
        <mxCell id="IyqTNhM_q4GYK48droa2-45" value="" style="edgeStyle=orthogonalEdgeStyle;rounded=0;orthogonalLoop=1;jettySize=auto;html=1;" edge="1" parent="WIyWlLk6GJQsqaUBKTNV-1" source="IyqTNhM_q4GYK48droa2-42" target="IyqTNhM_q4GYK48droa2-44">
          <mxGeometry relative="1" as="geometry" />
        </mxCell>
        <mxCell id="IyqTNhM_q4GYK48droa2-42" value="IRaffleStock.updateStrategyAwardStock" style="rounded=1;whiteSpace=wrap;html=1;" vertex="1" parent="WIyWlLk6GJQsqaUBKTNV-1">
          <mxGeometry x="1530" y="780" width="233" height="60" as="geometry" />
        </mxCell>
        <mxCell id="IyqTNhM_q4GYK48droa2-47" value="" style="edgeStyle=orthogonalEdgeStyle;rounded=0;orthogonalLoop=1;jettySize=auto;html=1;" edge="1" parent="WIyWlLk6GJQsqaUBKTNV-1" source="IyqTNhM_q4GYK48droa2-44" target="IyqTNhM_q4GYK48droa2-46">
          <mxGeometry relative="1" as="geometry" />
        </mxCell>
        <mxCell id="IyqTNhM_q4GYK48droa2-44" value="reposity.updateStrategyAwardStock" style="whiteSpace=wrap;html=1;rounded=1;" vertex="1" parent="WIyWlLk6GJQsqaUBKTNV-1">
          <mxGeometry x="1851.5" y="782.5" width="216.5" height="55" as="geometry" />
        </mxCell>
        <mxCell id="IyqTNhM_q4GYK48droa2-46" value="通过Dao层的updateStrategyAwardStock, 将奖品的数量 - 1" style="whiteSpace=wrap;html=1;rounded=1;" vertex="1" parent="WIyWlLk6GJQsqaUBKTNV-1">
          <mxGeometry x="1876.37" y="870" width="166.75" height="90" as="geometry" />
        </mxCell>
      </root>
    </mxGraphModel>
  </diagram>
</mxfile>
